<?xml version="1.0" standalone="no"?>
<!DOCTYPE svg PUBLIC "-//W3C//DTD SVG 20010904//EN"
 "http://www.w3.org/TR/2001/REC-SVG-20010904/DTD/svg10.dtd">
<svg version="1.0" xmlns="http://www.w3.org/2000/svg"
 width="480.000000pt" height="480.000000pt" viewBox="0 0 480.000000 480.000000"
 preserveAspectRatio="xMidYMid meet">
<metadata>
Created by potrace 1.14, written by Peter Selinger 2001-2017
</metadata>
<g transform="translate(0.000000,480.000000) scale(0.100000,-0.100000)"
fill="#000000" stroke="none">
<path d="M1943 4605 c-75 -21 -120 -46 -204 -113 -79 -64 -93 -78 -157 -165
-181 -244 -251 -513 -196 -754 66 -292 348 -549 596 -540 36 1 69 5 73 9 4 4
13 4 19 2 18 -7 119 33 188 73 70 41 164 126 204 185 16 24 32 45 35 48 10 8
66 132 79 175 26 90 36 166 33 275 -3 164 -8 199 -46 325 -11 39 -21 72 -22
75 0 3 -14 32 -29 65 -37 80 -102 170 -163 225 -43 39 -74 58 -186 112 -34 17
-170 19 -224 3z"/>
<path d="M483 4129 c-197 -35 -369 -248 -450 -558 -32 -123 -40 -331 -16 -437
41 -182 156 -351 310 -455 64 -44 183 -104 183 -94 0 3 12 0 26 -6 78 -29 206
-29 294 1 210 71 381 291 418 539 26 179 -29 437 -135 621 -156 272 -409 428
-630 389z"/>
<path d="M3470 3974 c-249 -48 -538 -258 -668 -486 -37 -64 -80 -189 -86 -249
-2 -24 -5 -46 -6 -49 -4 -11 0 -146 5 -170 2 -14 7 -38 11 -55 29 -149 117
-300 217 -373 50 -37 141 -88 162 -90 6 0 33 -4 60 -8 89 -13 158 -11 240 7
215 47 400 198 509 416 14 29 26 59 26 68 0 8 4 15 8 15 8 0 15 22 47 135 37
133 47 267 31 407 -13 105 -66 221 -138 303 -49 55 -130 113 -168 120 -12 2
-31 7 -43 11 -38 12 -140 11 -207 -2z"/>
<path d="M1847 2778 c-42 -5 -108 -15 -145 -23 -37 -9 -78 -18 -92 -21 -108
-22 -344 -110 -449 -167 -225 -120 -329 -195 -487 -352 -270 -266 -381 -586
-319 -915 19 -103 80 -251 144 -350 106 -166 249 -315 416 -435 51 -37 230
-145 240 -145 2 0 41 -18 87 -39 86 -40 222 -87 338 -116 146 -37 233 -45 487
-45 221 0 269 3 395 24 661 113 973 504 915 1146 -10 109 -22 173 -56 306 -42
166 -53 197 -139 374 -185 385 -520 663 -898 746 -89 19 -310 25 -437 12z"/>
<path d="M4255 2562 c-1 -2 -22 -5 -46 -7 -117 -10 -241 -45 -359 -102 -80
-38 -109 -59 -181 -132 -70 -70 -94 -102 -127 -171 -112 -235 -95 -487 42
-646 50 -59 130 -109 222 -140 66 -22 96 -26 184 -26 58 0 112 2 120 4 8 3 33
8 55 13 65 12 202 81 269 134 218 174 353 406 362 622 10 251 -134 414 -391
444 -60 7 -145 11 -150 7z"/>
</g>
</svg>
